<svg width="278" height="72" viewBox="0 0 278 72" fill="none" xmlns="http://www.w3.org/2000/svg">
<path d="M11.712 22.424C8.512 22.424 5.888 21.496 3.84 19.64C1.856 17.784 0.864 15.224 0.864 11.96C0.864 8.76 1.76 6.2 3.552 4.27999C5.408 2.296 8.128 1.304 11.712 1.304H53.088C56.672 1.304 59.36 2.296 61.152 4.27999C63.008 6.2 63.936 8.76 63.936 11.96C63.936 15.224 62.912 17.784 60.864 19.64C58.88 21.496 56.288 22.424 53.088 22.424C50.912 22.424 49.152 22.2 47.808 21.752C46.528 21.24 45.472 20.664 44.64 20.024C43.808 19.32 43.008 18.744 42.24 18.296C41.472 17.784 40.512 17.528 39.36 17.528L38.496 19.256C38.752 19.832 39.2 20.664 39.84 21.752C40.48 22.776 41.088 24.28 41.664 26.264C42.24 28.184 42.528 30.808 42.528 34.136V61.88C42.528 64.504 41.536 66.68 39.552 68.408C37.632 70.136 35.264 71 32.448 71C29.568 71 27.136 70.136 25.152 68.408C23.232 66.68 22.272 64.504 22.272 61.88V34.136C22.272 30.808 22.56 28.184 23.136 26.264C23.712 24.28 24.32 22.776 24.96 21.752C25.664 20.664 26.144 19.832 26.4 19.256L25.44 17.528C24.288 17.528 23.328 17.784 22.56 18.296C21.792 18.744 20.992 19.32 20.16 20.024C19.328 20.664 18.272 21.24 16.992 21.752C15.712 22.2 13.952 22.424 11.712 22.424ZM61.9418 71C57.6538 70.36 54.8698 68.408 53.5898 65.144C52.3098 61.816 52.5658 57.624 54.3578 52.568L67.0298 16.568C68.1818 13.24 69.4938 10.392 70.9658 8.024C72.5018 5.656 74.3898 3.832 76.6298 2.55199C78.9338 1.272 81.7818 0.631996 85.1738 0.631996C90.2938 0.631996 94.1338 2.04 96.6938 4.856C99.3178 7.672 101.494 11.576 103.222 16.568L115.798 52.568C117.59 57.624 117.91 61.816 116.758 65.144C115.67 68.408 112.95 70.36 108.598 71C105.078 71.448 102.006 71.032 99.3818 69.752C96.8218 68.472 95.2858 66.392 94.7738 63.512C94.3898 61.592 94.3258 59.992 94.5818 58.712C94.9018 57.432 95.1898 56.408 95.4458 55.64C95.6378 55 95.6378 54.392 95.4458 53.816C95.3178 53.176 94.8378 52.856 94.0058 52.856H76.1498C75.3178 52.856 74.8058 53.176 74.6138 53.816C74.4858 54.392 74.5498 55 74.8058 55.64C75.0618 56.408 75.3178 57.432 75.5738 58.712C75.8298 59.992 75.7978 61.592 75.4778 63.512C74.9658 66.392 73.4618 68.472 70.9658 69.752C68.4698 71.032 65.4618 71.448 61.9418 71ZM92.1818 39.416L87.1898 23.768C87.0618 23.128 86.8378 22.648 86.5178 22.328C86.2618 21.944 85.8138 21.752 85.1738 21.752C84.5338 21.752 84.0538 21.944 83.7338 22.328C83.4778 22.648 83.2538 23.128 83.0618 23.768L78.1658 39.416H92.1818Z" fill="#2E5FA3"/>
<path d="M132.02 71C128.82 71 126.388 70.008 124.724 68.024C123.06 66.04 122.228 63.384 122.228 60.056V15.032C122.228 11.704 122.836 9.016 124.052 6.96799C125.332 4.856 126.964 3.32 128.948 2.36C130.996 1.4 133.204 0.919998 135.572 0.919998C139.092 0.919998 142.068 1.848 144.5 3.704C146.932 5.56 148.82 8.824 150.164 13.496L160.532 48.92H162.068V12.056C162.068 8.664 162.932 6.008 164.66 4.088C166.388 2.104 168.852 1.112 172.052 1.112C175.38 1.112 177.844 2.104 179.444 4.088C181.108 6.008 181.94 8.664 181.94 12.056V55.448C181.94 60.824 180.756 64.792 178.388 67.352C176.02 69.912 172.692 71.192 168.404 71.192C164.052 71.192 160.66 70.04 158.228 67.736C155.796 65.432 153.94 62.04 152.66 57.56L145.844 34.232C145.716 33.592 145.46 33.016 145.076 32.504C144.756 31.928 144.308 31.64 143.732 31.64C143.028 31.64 142.548 31.928 142.292 32.504C142.036 33.016 141.908 33.592 141.908 34.232V60.056C141.908 63.384 141.076 66.04 139.412 68.024C137.748 70.008 135.284 71 132.02 71Z" fill="#3DAA31"/>
<path d="M198.025 71.192C195.081 71.192 192.681 70.296 190.825 68.504C188.969 66.712 188.041 64.44 188.041 61.688V10.904C188.041 8.088 188.937 5.72 190.729 3.8C192.585 1.88 195.017 0.919998 198.025 0.919998C201.225 0.919998 203.721 1.88 205.513 3.8C207.369 5.656 208.297 7.96 208.297 10.712V61.688C208.297 64.44 207.305 66.712 205.321 68.504C203.401 70.296 200.969 71.192 198.025 71.192ZM221.317 71C217.029 70.36 214.245 68.408 212.965 65.144C211.685 61.816 211.941 57.624 213.733 52.568L226.405 16.568C227.557 13.24 228.869 10.392 230.341 8.024C231.877 5.656 233.765 3.832 236.005 2.55199C238.309 1.272 241.157 0.631996 244.549 0.631996C249.669 0.631996 253.509 2.04 256.069 4.856C258.693 7.672 260.869 11.576 262.597 16.568L275.173 52.568C276.965 57.624 277.285 61.816 276.133 65.144C275.045 68.408 272.325 70.36 267.973 71C264.453 71.448 261.381 71.032 258.757 69.752C256.197 68.472 254.661 66.392 254.149 63.512C253.765 61.592 253.701 59.992 253.957 58.712C254.277 57.432 254.565 56.408 254.821 55.64C255.013 55 255.013 54.392 254.821 53.816C254.693 53.176 254.213 52.856 253.381 52.856H235.525C234.693 52.856 234.181 53.176 233.989 53.816C233.861 54.392 233.925 55 234.181 55.64C234.437 56.408 234.693 57.432 234.949 58.712C235.205 59.992 235.173 61.592 234.853 63.512C234.341 66.392 232.837 68.472 230.341 69.752C227.845 71.032 224.837 71.448 221.317 71ZM251.557 39.416L246.565 23.768C246.437 23.128 246.213 22.648 245.893 22.328C245.637 21.944 245.189 21.752 244.549 21.752C243.909 21.752 243.429 21.944 243.109 22.328C242.853 22.648 242.629 23.128 242.437 23.768L237.541 39.416H251.557Z" fill="#A75932"/>
</svg>
